<mxfile host="65bd71144e">
    <diagram id="wYDvWG71Y4gs6L-gpRoO" name="Page-1">
        <mxGraphModel dx="1397" dy="786" grid="1" gridSize="10" guides="1" tooltips="1" connect="1" arrows="1" fold="1" page="1" pageScale="1" pageWidth="850" pageHeight="1100" math="0" shadow="0">
            <root>
                <mxCell id="0"/>
                <mxCell id="1" parent="0"/>
                <mxCell id="2" value="Jenkins" style="swimlane;childLayout=stackLayout;resizeParent=1;resizeParentMax=0;horizontal=1;startSize=20;horizontalStack=0;html=1;" vertex="1" parent="1">
                    <mxGeometry x="20" y="30" width="810" height="630" as="geometry"/>
                </mxCell>
                <mxCell id="3" value="Trigger Stage" style="swimlane;startSize=20;horizontal=0;html=1;" vertex="1" parent="2">
                    <mxGeometry y="20" width="810" height="261" as="geometry"/>
                </mxCell>
                <mxCell id="58" style="edgeStyle=orthogonalEdgeStyle;html=1;exitX=1;exitY=0.5;exitDx=0;exitDy=0;entryX=0;entryY=0.5;entryDx=0;entryDy=0;fontSize=8;" edge="1" parent="3" source="8" target="9">
                    <mxGeometry relative="1" as="geometry"/>
                </mxCell>
                <mxCell id="8" value="&lt;font style=&quot;font-size: 8px;&quot;&gt;check in commit message for jira ID / ITSM tool CR ID to be to existing work item&lt;/font&gt;" style="rounded=0;whiteSpace=wrap;html=1;" vertex="1" parent="3">
                    <mxGeometry x="150" y="30" width="100" height="50" as="geometry"/>
                </mxCell>
                <mxCell id="9" value="is Jira ID and/or ITSM CR ID Valid?" style="rhombus;whiteSpace=wrap;html=1;fontSize=8;" vertex="1" parent="3">
                    <mxGeometry x="273" y="15" width="80" height="80" as="geometry"/>
                </mxCell>
                <mxCell id="10" value="" style="endArrow=classic;html=1;fontSize=8;exitX=0.5;exitY=1;exitDx=0;exitDy=0;entryX=0.5;entryY=1;entryDx=0;entryDy=0;edgeStyle=orthogonalEdgeStyle;" edge="1" parent="3" source="9" target="8">
                    <mxGeometry relative="1" as="geometry">
                        <mxPoint x="333" y="250" as="sourcePoint"/>
                        <mxPoint x="433" y="250" as="targetPoint"/>
                    </mxGeometry>
                </mxCell>
                <mxCell id="11" value="No" style="edgeLabel;resizable=0;html=1;align=center;verticalAlign=middle;fontSize=8;" connectable="0" vertex="1" parent="10">
                    <mxGeometry relative="1" as="geometry">
                        <mxPoint y="1" as="offset"/>
                    </mxGeometry>
                </mxCell>
                <mxCell id="59" style="edgeStyle=orthogonalEdgeStyle;html=1;exitX=1;exitY=0.5;exitDx=0;exitDy=0;entryX=0;entryY=0.5;entryDx=0;entryDy=0;fontSize=8;" edge="1" parent="3" source="13" target="55">
                    <mxGeometry relative="1" as="geometry"/>
                </mxCell>
                <mxCell id="13" value="&lt;font style=&quot;font-size: 8px;&quot;&gt;git clone the repository to the jenkins worker&lt;/font&gt;" style="rounded=0;whiteSpace=wrap;html=1;" vertex="1" parent="3">
                    <mxGeometry x="390" y="30" width="100" height="50" as="geometry"/>
                </mxCell>
                <mxCell id="14" value="" style="endArrow=classic;html=1;fontSize=8;exitX=1;exitY=0.5;exitDx=0;exitDy=0;entryX=0;entryY=0.5;entryDx=0;entryDy=0;" edge="1" parent="3" source="9" target="13">
                    <mxGeometry relative="1" as="geometry">
                        <mxPoint x="333" y="250" as="sourcePoint"/>
                        <mxPoint x="433" y="250" as="targetPoint"/>
                    </mxGeometry>
                </mxCell>
                <mxCell id="15" value="Yes" style="edgeLabel;resizable=0;html=1;align=center;verticalAlign=middle;fontSize=8;" connectable="0" vertex="1" parent="14">
                    <mxGeometry relative="1" as="geometry"/>
                </mxCell>
                <mxCell id="62" style="edgeStyle=orthogonalEdgeStyle;html=1;exitX=1;exitY=0.5;exitDx=0;exitDy=0;fontSize=8;" edge="1" parent="3" source="55" target="61">
                    <mxGeometry relative="1" as="geometry"/>
                </mxCell>
                <mxCell id="55" value="&lt;font style=&quot;font-size: 8px;&quot;&gt;git clone the repository to the jenkins worker&lt;/font&gt;" style="rounded=0;whiteSpace=wrap;html=1;" vertex="1" parent="3">
                    <mxGeometry x="520" y="30" width="100" height="50" as="geometry"/>
                </mxCell>
                <mxCell id="57" style="edgeStyle=orthogonalEdgeStyle;html=1;exitX=1;exitY=0.5;exitDx=0;exitDy=0;entryX=0;entryY=0.5;entryDx=0;entryDy=0;fontSize=8;" edge="1" parent="3" source="56" target="8">
                    <mxGeometry relative="1" as="geometry"/>
                </mxCell>
                <mxCell id="56" value="&lt;font style=&quot;font-size: 8px;&quot;&gt;to choose from&lt;br&gt;1. image build &lt;br&gt;2. helm deploy only&lt;br&gt;3. build and deploy&lt;br&gt;&lt;/font&gt;" style="rounded=0;whiteSpace=wrap;html=1;" vertex="1" parent="3">
                    <mxGeometry x="30" y="25" width="100" height="60" as="geometry"/>
                </mxCell>
                <mxCell id="53" value="&lt;font style=&quot;font-size: 8px;&quot;&gt;the jira or servicenow plugin can be used&amp;nbsp;&lt;/font&gt;" style="shape=note;whiteSpace=wrap;html=1;backgroundOutline=1;fontColor=#000000;darkOpacity=0.05;fillColor=#FFF9B2;strokeColor=none;fillStyle=solid;direction=west;gradientDirection=north;gradientColor=#FFF2A1;shadow=1;size=20;pointerEvents=1;opacity=50;" vertex="1" parent="3">
                    <mxGeometry x="210" y="-40" width="80" height="50" as="geometry"/>
                </mxCell>
                <mxCell id="70" style="edgeStyle=orthogonalEdgeStyle;html=1;exitX=0.5;exitY=1;exitDx=0;exitDy=0;entryX=0.5;entryY=0;entryDx=0;entryDy=0;fontSize=8;" edge="1" parent="3" source="61" target="63">
                    <mxGeometry relative="1" as="geometry"/>
                </mxCell>
                <mxCell id="61" value="is this operation 1, 2 or 3?" style="rhombus;whiteSpace=wrap;html=1;fontSize=8;" vertex="1" parent="3">
                    <mxGeometry x="650" y="15" width="80" height="80" as="geometry"/>
                </mxCell>
                <mxCell id="71" value="operation 2 or 3" style="edgeStyle=orthogonalEdgeStyle;html=1;exitX=1;exitY=0.5;exitDx=0;exitDy=0;entryX=0;entryY=0.5;entryDx=0;entryDy=0;fontSize=8;" edge="1" parent="3" source="63" target="64">
                    <mxGeometry relative="1" as="geometry">
                        <Array as="points">
                            <mxPoint x="130" y="200"/>
                            <mxPoint x="150" y="200"/>
                        </Array>
                    </mxGeometry>
                </mxCell>
                <mxCell id="75" value="if operation 1" style="edgeStyle=orthogonalEdgeStyle;html=1;exitX=0.5;exitY=1;exitDx=0;exitDy=0;entryX=0.5;entryY=1;entryDx=0;entryDy=0;fontSize=8;" edge="1" parent="3" source="63" target="69">
                    <mxGeometry relative="1" as="geometry">
                        <Array as="points">
                            <mxPoint x="80" y="210"/>
                            <mxPoint x="580" y="210"/>
                        </Array>
                    </mxGeometry>
                </mxCell>
                <mxCell id="63" value="&lt;font style=&quot;font-size: 8px;&quot;&gt;run docker build operation&amp;nbsp; and push the image to target registry &lt;b&gt;after approval&lt;/b&gt;&lt;/font&gt;" style="rounded=0;whiteSpace=wrap;html=1;" vertex="1" parent="3">
                    <mxGeometry x="30" y="132" width="100" height="50" as="geometry"/>
                </mxCell>
                <mxCell id="72" style="edgeStyle=orthogonalEdgeStyle;html=1;exitX=1;exitY=0.5;exitDx=0;exitDy=0;fontSize=8;" edge="1" parent="3" source="64" target="65">
                    <mxGeometry relative="1" as="geometry"/>
                </mxCell>
                <mxCell id="64" value="&lt;font style=&quot;font-size: 8px;&quot;&gt;run helm linting functions to check for helm basic syntax&lt;/font&gt;" style="rounded=0;whiteSpace=wrap;html=1;" vertex="1" parent="3">
                    <mxGeometry x="160" y="132" width="100" height="50" as="geometry"/>
                </mxCell>
                <mxCell id="73" style="edgeStyle=orthogonalEdgeStyle;html=1;exitX=1;exitY=0.5;exitDx=0;exitDy=0;entryX=0;entryY=0.5;entryDx=0;entryDy=0;fontSize=8;" edge="1" parent="3" source="65" target="68">
                    <mxGeometry relative="1" as="geometry"/>
                </mxCell>
                <mxCell id="65" value="&lt;font style=&quot;font-size: 8px;&quot;&gt;check that the target namespace for the helm deployment is valid&lt;/font&gt;" style="rounded=0;whiteSpace=wrap;html=1;" vertex="1" parent="3">
                    <mxGeometry x="290" y="132" width="100" height="50" as="geometry"/>
                </mxCell>
                <mxCell id="66" value="&lt;span style=&quot;font-size: 8px;&quot;&gt;params such as target namespace, target registry path can be specified&lt;/span&gt;" style="shape=note;whiteSpace=wrap;html=1;backgroundOutline=1;fontColor=#000000;darkOpacity=0.05;fillColor=#FFF9B2;strokeColor=none;fillStyle=solid;direction=west;gradientDirection=north;gradientColor=#FFF2A1;shadow=1;size=20;pointerEvents=1;opacity=50;" vertex="1" parent="3">
                    <mxGeometry x="50" y="-40" width="80" height="50" as="geometry"/>
                </mxCell>
                <mxCell id="74" style="edgeStyle=orthogonalEdgeStyle;html=1;exitX=1;exitY=0.5;exitDx=0;exitDy=0;entryX=0;entryY=0.5;entryDx=0;entryDy=0;fontSize=8;" edge="1" parent="3" source="68" target="69">
                    <mxGeometry relative="1" as="geometry"/>
                </mxCell>
                <mxCell id="68" value="syntax, namespace valid?" style="rhombus;whiteSpace=wrap;html=1;fontSize=8;" vertex="1" parent="3">
                    <mxGeometry x="410" y="117" width="80" height="80" as="geometry"/>
                </mxCell>
                <mxCell id="83" style="edgeStyle=orthogonalEdgeStyle;html=1;exitX=1;exitY=0.5;exitDx=0;exitDy=0;entryX=0;entryY=0;entryDx=0;entryDy=34.83684963679535;entryPerimeter=0;fontSize=8;" edge="1" parent="3" source="69" target="82">
                    <mxGeometry relative="1" as="geometry"/>
                </mxCell>
                <mxCell id="69" value="End - image pushed to registry / syntax verified, pull request to develop/ can be merged&lt;b&gt; with appoval&lt;/b&gt;" style="shape=process;whiteSpace=wrap;html=1;backgroundOutline=1;fontSize=8;" vertex="1" parent="3">
                    <mxGeometry x="520" y="127" width="120" height="60" as="geometry"/>
                </mxCell>
                <mxCell id="82" value="" style="html=1;whiteSpace=wrap;shape=isoCube2;backgroundOutline=1;isoAngle=15;fontSize=8;" vertex="1" parent="3">
                    <mxGeometry x="680" y="132" width="40" height="44.44" as="geometry"/>
                </mxCell>
                <mxCell id="84" value="&lt;font style=&quot;font-size: 8px;&quot;&gt;artifacts, tar archive of helm chart, image url in registry&lt;/font&gt;" style="shape=note;whiteSpace=wrap;html=1;backgroundOutline=1;fontColor=#000000;darkOpacity=0.05;fillColor=#FFF9B2;strokeColor=none;fillStyle=solid;direction=west;gradientDirection=north;gradientColor=#FFF2A1;shadow=1;size=20;pointerEvents=1;opacity=50;" vertex="1" parent="3">
                    <mxGeometry x="730" y="126.44" width="80" height="50" as="geometry"/>
                </mxCell>
                <mxCell id="4" value="Dev Stage" style="swimlane;startSize=20;horizontal=0;html=1;" vertex="1" parent="2">
                    <mxGeometry y="281" width="810" height="149" as="geometry"/>
                </mxCell>
                <mxCell id="78" style="edgeStyle=orthogonalEdgeStyle;html=1;exitX=1;exitY=0.5;exitDx=0;exitDy=0;entryX=0;entryY=0.5;entryDx=0;entryDy=0;fontSize=8;" edge="1" parent="4" source="76" target="77">
                    <mxGeometry relative="1" as="geometry"/>
                </mxCell>
                <mxCell id="76" value="&lt;font style=&quot;font-size: 8px;&quot;&gt;run helm upgrade --install -n &amp;lt;namespace&amp;gt; specifying the chart directory path to be applied&lt;/font&gt;" style="rounded=0;whiteSpace=wrap;html=1;" vertex="1" parent="4">
                    <mxGeometry x="30" y="41" width="100" height="50" as="geometry"/>
                </mxCell>
                <mxCell id="88" style="edgeStyle=orthogonalEdgeStyle;html=1;exitX=1;exitY=0.5;exitDx=0;exitDy=0;entryX=0;entryY=0.5;entryDx=0;entryDy=0;fontSize=8;" edge="1" parent="4" source="77" target="87">
                    <mxGeometry relative="1" as="geometry"/>
                </mxCell>
                <mxCell id="77" value="&lt;font style=&quot;font-size: 8px;&quot;&gt;output helm debug to jenkins log file, checking each line for errors&lt;/font&gt;" style="rounded=0;whiteSpace=wrap;html=1;" vertex="1" parent="4">
                    <mxGeometry x="160" y="41" width="100" height="50" as="geometry"/>
                </mxCell>
                <mxCell id="86" value="all test cases passed? / errors resolved?" style="rhombus;whiteSpace=wrap;html=1;fontSize=8;" vertex="1" parent="4">
                    <mxGeometry x="420" y="59" width="80" height="80" as="geometry"/>
                </mxCell>
                <mxCell id="90" style="edgeStyle=orthogonalEdgeStyle;html=1;exitX=1;exitY=0.5;exitDx=0;exitDy=0;entryX=0;entryY=0.5;entryDx=0;entryDy=0;fontSize=8;" edge="1" parent="4" source="87" target="86">
                    <mxGeometry relative="1" as="geometry"/>
                </mxCell>
                <mxCell id="87" value="&lt;font style=&quot;font-size: 8px;&quot;&gt;check for application test cases and run cluster level healthchecks&lt;/font&gt;" style="rounded=0;whiteSpace=wrap;html=1;" vertex="1" parent="4">
                    <mxGeometry x="290" y="41" width="100" height="50" as="geometry"/>
                </mxCell>
                <mxCell id="91" value="errors?" style="edgeStyle=orthogonalEdgeStyle;html=1;exitX=0.5;exitY=0;exitDx=0;exitDy=0;fontSize=8;entryX=0;entryY=0.5;entryDx=0;entryDy=0;" edge="1" parent="4" source="87" target="93">
                    <mxGeometry relative="1" as="geometry">
                        <mxPoint x="399.9996551724139" y="19" as="targetPoint"/>
                    </mxGeometry>
                </mxCell>
                <mxCell id="98" style="edgeStyle=orthogonalEdgeStyle;html=1;exitX=1;exitY=0.5;exitDx=0;exitDy=0;entryX=0;entryY=0.5;entryDx=0;entryDy=0;fontSize=8;" edge="1" parent="4" source="93" target="95">
                    <mxGeometry relative="1" as="geometry"/>
                </mxCell>
                <mxCell id="93" value="&lt;font style=&quot;font-size: 8px;&quot;&gt;run helm rollback / validation that chart is reverted&lt;/font&gt;" style="rounded=0;whiteSpace=wrap;html=1;" vertex="1" parent="4">
                    <mxGeometry x="420" width="100" height="50" as="geometry"/>
                </mxCell>
                <mxCell id="95" value="pipeline stopped, output errors as artifacts" style="shape=process;whiteSpace=wrap;html=1;backgroundOutline=1;fontSize=8;" vertex="1" parent="4">
                    <mxGeometry x="549.9996551724139" y="-5" width="120" height="60" as="geometry"/>
                </mxCell>
                <mxCell id="100" value="&lt;font style=&quot;font-size: 8px;&quot;&gt;check for valid ITSM CR ID, and trigger&amp;nbsp;&lt;b&gt;manual approval&lt;/b&gt;&lt;/font&gt;" style="rounded=0;whiteSpace=wrap;html=1;" vertex="1" parent="4">
                    <mxGeometry x="550" y="74" width="100" height="50" as="geometry"/>
                </mxCell>
                <mxCell id="99" style="edgeStyle=orthogonalEdgeStyle;html=1;exitX=1;exitY=0.5;exitDx=0;exitDy=0;fontSize=8;entryX=0;entryY=0.5;entryDx=0;entryDy=0;" edge="1" parent="4" source="86" target="100">
                    <mxGeometry relative="1" as="geometry">
                        <mxPoint x="650" y="99" as="targetPoint"/>
                    </mxGeometry>
                </mxCell>
                <mxCell id="85" style="edgeStyle=orthogonalEdgeStyle;html=1;exitX=1;exitY=0.75;exitDx=0;exitDy=0;entryX=0.5;entryY=0;entryDx=0;entryDy=0;fontSize=8;" edge="1" parent="2" source="69" target="76">
                    <mxGeometry relative="1" as="geometry">
                        <mxPoint x="610" y="210" as="sourcePoint"/>
                        <mxPoint x="80" y="263" as="targetPoint"/>
                        <Array as="points">
                            <mxPoint x="650" y="192"/>
                            <mxPoint x="650" y="260"/>
                            <mxPoint x="80" y="260"/>
                        </Array>
                    </mxGeometry>
                </mxCell>
                <mxCell id="106" value="after approval" style="edgeStyle=orthogonalEdgeStyle;html=1;exitX=0.5;exitY=1;exitDx=0;exitDy=0;entryX=0.5;entryY=0;entryDx=0;entryDy=0;fontSize=8;" edge="1" parent="2" source="100" target="101">
                    <mxGeometry relative="1" as="geometry">
                        <Array as="points">
                            <mxPoint x="600" y="440"/>
                            <mxPoint x="80" y="440"/>
                        </Array>
                    </mxGeometry>
                </mxCell>
                <mxCell id="5" value="Production Stage" style="swimlane;startSize=20;horizontal=0;html=1;" vertex="1" parent="2">
                    <mxGeometry y="430" width="810" height="200" as="geometry"/>
                </mxCell>
                <mxCell id="104" style="edgeStyle=orthogonalEdgeStyle;html=1;exitX=1;exitY=0.5;exitDx=0;exitDy=0;entryX=0;entryY=0.5;entryDx=0;entryDy=0;fontSize=8;" edge="1" parent="5" source="101" target="102">
                    <mxGeometry relative="1" as="geometry"/>
                </mxCell>
                <mxCell id="101" value="&lt;font style=&quot;font-size: 8px;&quot;&gt;run helm upgrade --install -n &amp;lt;namespace&amp;gt; specifying the chart directory path to be applied&lt;/font&gt;" style="rounded=0;whiteSpace=wrap;html=1;" vertex="1" parent="5">
                    <mxGeometry x="30" y="30" width="100" height="50" as="geometry"/>
                </mxCell>
                <mxCell id="105" style="edgeStyle=orthogonalEdgeStyle;html=1;exitX=1;exitY=0.5;exitDx=0;exitDy=0;entryX=0;entryY=0.5;entryDx=0;entryDy=0;fontSize=8;" edge="1" parent="5" source="102" target="103">
                    <mxGeometry relative="1" as="geometry"/>
                </mxCell>
                <mxCell id="102" value="&lt;font style=&quot;font-size: 8px;&quot;&gt;output helm debug to jenkins log file, checking each line for errors&lt;/font&gt;" style="rounded=0;whiteSpace=wrap;html=1;" vertex="1" parent="5">
                    <mxGeometry x="160" y="30" width="100" height="50" as="geometry"/>
                </mxCell>
                <mxCell id="113" value="errors?" style="edgeStyle=orthogonalEdgeStyle;html=1;exitX=1;exitY=0.5;exitDx=0;exitDy=0;entryX=0;entryY=0.5;entryDx=0;entryDy=0;fontSize=8;" edge="1" parent="5" source="103" target="111">
                    <mxGeometry relative="1" as="geometry"/>
                </mxCell>
                <mxCell id="115" style="edgeStyle=orthogonalEdgeStyle;html=1;exitX=1;exitY=0.5;exitDx=0;exitDy=0;entryX=0;entryY=0.5;entryDx=0;entryDy=0;fontSize=8;" edge="1" parent="5" source="103" target="110">
                    <mxGeometry relative="1" as="geometry"/>
                </mxCell>
                <mxCell id="103" value="&lt;font style=&quot;font-size: 8px;&quot;&gt;check for application test cases and run cluster level healthchecks&lt;/font&gt;" style="rounded=0;whiteSpace=wrap;html=1;" vertex="1" parent="5">
                    <mxGeometry x="290" y="30" width="100" height="50" as="geometry"/>
                </mxCell>
                <mxCell id="117" value="all clear" style="edgeStyle=orthogonalEdgeStyle;html=1;exitX=1;exitY=0.5;exitDx=0;exitDy=0;entryX=0;entryY=0.5;entryDx=0;entryDy=0;fontSize=8;" edge="1" parent="5" source="110" target="116">
                    <mxGeometry relative="1" as="geometry"/>
                </mxCell>
                <mxCell id="110" value="all test cases passed? / errors resolved?" style="rhombus;whiteSpace=wrap;html=1;fontSize=8;" vertex="1" parent="5">
                    <mxGeometry x="420" y="92" width="80" height="80" as="geometry"/>
                </mxCell>
                <mxCell id="114" style="edgeStyle=orthogonalEdgeStyle;html=1;exitX=1;exitY=0.5;exitDx=0;exitDy=0;entryX=0;entryY=0.5;entryDx=0;entryDy=0;fontSize=8;" edge="1" parent="5" source="111" target="112">
                    <mxGeometry relative="1" as="geometry"/>
                </mxCell>
                <mxCell id="111" value="&lt;font style=&quot;font-size: 8px;&quot;&gt;run helm rollback / validation that chart is reverted&lt;/font&gt;" style="rounded=0;whiteSpace=wrap;html=1;" vertex="1" parent="5">
                    <mxGeometry x="460" y="30" width="100" height="50" as="geometry"/>
                </mxCell>
                <mxCell id="112" value="pipeline stopped, output errors as artifacts" style="shape=process;whiteSpace=wrap;html=1;backgroundOutline=1;fontSize=8;" vertex="1" parent="5">
                    <mxGeometry x="579.9996551724139" y="25" width="120" height="60" as="geometry"/>
                </mxCell>
                <mxCell id="116" value="end of release workflow" style="shape=process;whiteSpace=wrap;html=1;backgroundOutline=1;fontSize=8;" vertex="1" parent="5">
                    <mxGeometry x="549.9996551724139" y="102" width="120" height="60" as="geometry"/>
                </mxCell>
                <mxCell id="118" value="&lt;font style=&quot;font-size: 8px;&quot;&gt;health checks can include promql queries and checking of keywords in logs&lt;/font&gt;" style="shape=note;whiteSpace=wrap;html=1;backgroundOutline=1;fontColor=#000000;darkOpacity=0.05;fillColor=#FFF9B2;strokeColor=none;fillStyle=solid;direction=west;gradientDirection=north;gradientColor=#FFF2A1;shadow=1;size=20;pointerEvents=1;opacity=50;" vertex="1" parent="5">
                    <mxGeometry x="280" y="-50" width="80" height="50" as="geometry"/>
                </mxCell>
            </root>
        </mxGraphModel>
    </diagram>
</mxfile>